<svg xmlns="http://www.w3.org/2000/svg" viewBox="0 0 512 512">
  <defs>
    <linearGradient id="bg" x1="0%" x2="100%" y1="0%" y2="100%">
      <stop offset="0%" stop-color="#17352b" />
      <stop offset="100%" stop-color="#2c7b74" />
    </linearGradient>
  </defs>
  <rect width="512" height="512" rx="112" fill="url(#bg)" />
  <circle cx="168" cy="172" r="66" fill="#f4efe4" />
  <path
    d="M147 201c7-26 22-44 42-52-10 19-12 41-4 66 7 21 5 37-6 50-23-5-36-28-32-64z"
    fill="#d46f3f"
  />
  <path
    d="M292 136c50 0 88 30 103 81 16 58-7 118-56 145-48 27-108 14-141-31l37-27c20 26 54 35 84 18 29-16 43-51 34-85-9-32-32-49-61-49-27 0-49 15-64 44l-42-20c22-51 61-76 106-76z"
    fill="#f4efe4"
  />
  <rect x="240" y="278" width="148" height="46" rx="23" fill="#d46f3f" />
</svg>
